<svg xmlns="http://www.w3.org/2000/svg" width="250" height="62" viewBox="0 0 250 62" role="img" aria-label="CONNECT ON LINKEDIN Itay Goldenberg"><defs>
<linearGradient id="bg" x1="0" y1="0" x2="1" y2="1"><stop stop-color="#0b0b18"/><stop offset=".55" stop-color="#120f26"/><stop offset="1" stop-color="#0d1424"/></linearGradient>
<linearGradient id="accent" x1="0" y1="0" x2="1" y2="0"><stop stop-color="#64d2ff"/><stop offset=".35" stop-color="#5e5ce6"/><stop offset=".7" stop-color="#bf5af2"/><stop offset="1" stop-color="#ff6ec7"/></linearGradient>
<linearGradient id="plane" x1="0" y1="0" x2="1" y2="1"><stop stop-color="#ffffff"/><stop offset=".5" stop-color="#64d2ff"/><stop offset="1" stop-color="#ff6ec7"/></linearGradient>
<filter id="glow" x="-60%" y="-60%" width="220%" height="220%"><feGaussianBlur stdDeviation="4" result="blur"/><feMerge><feMergeNode in="blur"/><feMergeNode in="SourceGraphic"/></feMerge></filter>
</defs><rect x="1" y="1" width="248" height="60" rx="12" fill="url(#bg)" stroke="url(#accent)" stroke-opacity=".75"/><path d="M12 57h226" stroke="url(#accent)" stroke-width="2" stroke-linecap="round" stroke-dasharray="34 12"><animate attributeName="stroke-dashoffset" from="46" to="0" dur="2.5s" repeatCount="indefinite"/></path><rect x="18" y="16" width="30" height="30" rx="6" fill="#0A66C2"/><g transform="translate(23 21) scale(0.8333333333333334)"><path fill="#ffffff" d="M20.447 20.452h-3.554v-5.569c0-1.328-.027-3.037-1.852-3.037-1.853 0-2.136 1.445-2.136 2.939v5.667H9.351V9h3.414v1.561h.046c.477-.9 1.637-1.85 3.37-1.85 3.601 0 4.267 2.37 4.267 5.455v6.286zM5.337 7.433c-1.144 0-2.063-.926-2.063-2.065 0-1.138.92-2.063 2.063-2.063 1.14 0 2.064.925 2.064 2.063 0 1.139-.925 2.065-2.064 2.065zm1.782 13.019H3.555V9h3.564v11.452zM22.225 0H1.771C.792 0 0 .774 0 1.729v20.542C0 23.227.792 24 1.771 24h20.451C23.2 24 24 23.227 24 22.271V1.729C24 .774 23.2 0 22.222 0h.003z"/></g><text x="66" y="27" fill="#f5f5f7" font-family="Segoe UI, Inter, Arial, sans-serif" font-size="11.5" font-weight="750">CONNECT ON LINKEDIN</text><text x="66" y="45" fill="#a1a1b5" font-family="Segoe UI, Inter, Arial, sans-serif" font-size="10.5">Itay Goldenberg</text><circle cx="232" cy="31" r="4" fill="#0A66C2" filter="url(#glow)"><animate attributeName="opacity" values="1;.3;1" dur="1.8s" repeatCount="indefinite"/></circle></svg>