<svg xmlns="http://www.w3.org/2000/svg" width="250" height="62" viewBox="0 0 250 62" role="img" aria-label="RUN WAYFARE LOCALLY Database, API and client"><defs>
<linearGradient id="bg" x1="0" y1="0" x2="1" y2="1"><stop stop-color="#0b0b18"/><stop offset=".55" stop-color="#120f26"/><stop offset="1" stop-color="#0d1424"/></linearGradient>
<linearGradient id="accent" x1="0" y1="0" x2="1" y2="0"><stop stop-color="#64d2ff"/><stop offset=".35" stop-color="#5e5ce6"/><stop offset=".7" stop-color="#bf5af2"/><stop offset="1" stop-color="#ff6ec7"/></linearGradient>
<linearGradient id="plane" x1="0" y1="0" x2="1" y2="1"><stop stop-color="#ffffff"/><stop offset=".5" stop-color="#64d2ff"/><stop offset="1" stop-color="#ff6ec7"/></linearGradient>
<filter id="glow" x="-60%" y="-60%" width="220%" height="220%"><feGaussianBlur stdDeviation="4" result="blur"/><feMerge><feMergeNode in="blur"/><feMergeNode in="SourceGraphic"/></feMerge></filter>
</defs><rect x="1" y="1" width="248" height="60" rx="12" fill="url(#bg)" stroke="url(#accent)" stroke-opacity=".75"/><path d="M12 57h226" stroke="url(#accent)" stroke-width="2" stroke-linecap="round" stroke-dasharray="34 12"><animate attributeName="stroke-dashoffset" from="46" to="0" dur="2.5s" repeatCount="indefinite"/></path><g transform="translate(18 16) scale(1.25)" fill="none" stroke="#64d2ff" stroke-width="2" stroke-linecap="round" stroke-linejoin="round"><path d="M13 8c0-2.76-2.46-5-5.5-5S2 5.24 2 8h2l1-1 1 1h4"/><path d="M13 7.14A5.82 5.82 0 0 1 16.5 6c3.04 0 5.5 2.24 5.5 5h-3l-1-1-1 1h-3"/><path d="M5.89 9.71c-2.15 2.15-2.3 5.47-.35 7.43l4.24-4.25.7-.7.71-.71 2.12-2.12c-1.95-1.96-5.27-1.8-7.42.35"/><path d="M11 15.5c.5 2.5-.17 4.5-1 6.5h4c2-5.5-.5-12-1-14"/></g><text x="66" y="27" fill="#f5f5f7" font-family="Segoe UI, Inter, Arial, sans-serif" font-size="11.5" font-weight="750">RUN WAYFARE LOCALLY</text><text x="66" y="45" fill="#a1a1b5" font-family="Segoe UI, Inter, Arial, sans-serif" font-size="10.5">Database, API and client</text><circle cx="232" cy="31" r="4" fill="#64d2ff" filter="url(#glow)"><animate attributeName="opacity" values="1;.3;1" dur="1.8s" repeatCount="indefinite"/></circle></svg>